<svg viewBox="0 0 1080 1080" fill="none" xmlns="http://www.w3.org/2000/svg">
  <defs>
    <filter
      id="filter"
      x="-20%"
      y="-20%"
      width="140%"
      height="140%"
      filterUnits="objectBoundingBox"
      primitiveUnits="userSpaceOnUse"
      color-interpolation-filters="linearRGB"
    >
      <feMorphology
        operator="dilate"
        radius="20 20"
        in="SourceAlpha"
        result="morphology"
      />
      <feFlood flood-color="#ffffff" flood-opacity="1" result="flood" />
      <feComposite
        in="flood"
        in2="morphology"
        operator="in"
        result="composite"
      />
      <feMerge result="merge">
        <feMergeNode in="composite" result="mergeNode" />
        <feMergeNode in="SourceGraphic" result="mergeNode1" />
      </feMerge>
    </filter>
  </defs>
  <g id="notion-avatar" filter="url(#filter)">
    <g id="notion-avatar-face" fill="#ffffff">
      <!--?xml version="1.0" encoding="UTF-8"?-->
      <title>Face/ 8</title>
      <g
        id="Face/-8"
        stroke="none"
        stroke-width="1"
        fill-rule="evenodd"
        stroke-linecap="round"
        stroke-linejoin="round"
      >
        <path
          d="M532,379 C664.54834,379 772,486.45166 772,619 C772,751.54834 724.54834,899 592,899 C492.560218,899 373.476049,816.010833 320.189513,718.584987 C317.498129,718.859681 314.765451,719 312,719 C267.81722,719 232,683.18278 232,639 C232,599.134956 261.158843,566.080325 299.312086,560.00055 C325.599297,455.979213 419.809919,379 532,379 Z M295.858895,624.545187 L304.141105,655.454813"
          id="Path"
          stroke="#000000"
          stroke-width="24"
        />
      </g>
    </g>
    <g id="notion-avatar-nose">
      <!--?xml version="1.0" encoding="UTF-8"?-->
      <title>Nose/ 10</title>
      <g
        id="Nose/-10"
        stroke="none"
        stroke-width="1"
        fill="none"
        fill-rule="evenodd"
        stroke-linecap="round"
        stroke-linejoin="round"
      >
        <path
          d="M631,694.380659 C660.333333,687.46022 678,677.333333 684,664 C693,644 637.033407,606.392531 660.161467,579"
          id="Path"
          stroke="#000000"
          stroke-width="16"
        />
      </g>
    </g>
    <g id="notion-avatar-mouth">
      <!--?xml version="1.0" encoding="UTF-8"?-->
      <title>Mouth/ 0</title>
      <g
        id="Mouth/-0"
        stroke="none"
        stroke-width="1"
        fill="none"
        fill-rule="evenodd"
        stroke-linecap="round"
        stroke-linejoin="round"
      >
        <path
          d="M549,759 C576.33038,765.666667 599.663714,769 619,769 C638.336286,769 655.002953,765.666667 669,759"
          id="Path"
          stroke="#000000"
          stroke-width="16"
        />
      </g>
    </g>
    <g id="notion-avatar-eyes">
      <!--?xml version="1.0" encoding="UTF-8"?-->
      <title>Eyes/ 9</title>
      <g
        id="Eyes/-9"
        stroke="none"
        stroke-width="1"
        fill="none"
        fill-rule="evenodd"
      >
        <path
          d="M570,507 C575.854822,507 581.122051,511.025253 584.779642,517.440484 L578,531 L589.369946,531.000208 C589.781247,533.557105 590,536.237678 590,539 C590,556.673112 581.045695,571 570,571 C558.954305,571 550,556.673112 550,539 C550,521.326888 558.954305,507 570,507 Z M708,507 C713.854822,507 719.122051,511.025253 722.779642,517.440484 L716,531 L727.369946,531.000208 C727.781247,533.557105 728,536.237678 728,539 C728,556.673112 719.045695,571 708,571 C696.954305,571 688,556.673112 688,539 C688,521.326888 696.954305,507 708,507 Z"
          id="Combined-Shape"
          fill="#000000"
        />
      </g>
    </g>
    <g id="notion-avatar-eyebrows">
      <!--?xml version="1.0" encoding="UTF-8"?-->
      <title>Eyebrows/ 7</title>
      <g
        id="Eyebrows/-7"
        stroke="none"
        stroke-width="1"
        fill="none"
        fill-rule="evenodd"
        stroke-linecap="round"
        stroke-linejoin="round"
      >
        <g
          id="Group"
          transform="translate(528.000000, 485.000000)"
          stroke="#000000"
          stroke-width="16"
        >
          <path
            d="M2,31 C13.6420073,23.1142473 23.8820073,17.5142473 32.72,14.2 C41.5579927,10.8857527 52.651326,8.48575274 66,7"
            id="Path"
            transform="translate(34.000000, 19.000000) rotate(12.000000) translate(-34.000000, -19.000000) "
          />
          <path
            d="M156,31 C167.642007,23.1142473 177.882007,17.5142473 186.72,14.2 C195.557993,10.8857527 206.651326,8.48575274 220,7"
            id="Path"
            transform="translate(188.000000, 19.000000) scale(-1, 1) rotate(12.000000) translate(-188.000000, -19.000000) "
          />
        </g>
      </g>
    </g>
    <g id="notion-avatar-accessories">
      <!--?xml version="1.0" encoding="UTF-8"?-->
      <title>Accessories/ 0</title>
      <g
        id="Accessories/-0"
        stroke="none"
        stroke-width="1"
        fill="none"
        fill-rule="evenodd"
      />
    </g>
    <g id="notion-avatar-details">
      <!--?xml version="1.0" encoding="UTF-8"?-->
      <title>Details/ 2</title>
      <g
        id="Details/-2"
        stroke="none"
        stroke-width="1"
        fill="none"
        fill-rule="evenodd"
        stroke-linecap="round"
        stroke-linejoin="round"
      >
        <path
          d="M485,619 C507.09139,619 525,627.954305 525,639 C525,650.045695 507.09139,659 485,659 C462.90861,659 445,650.045695 445,639 C445,627.954305 462.90861,619 485,619 Z M768.257551,619.086322 C769.489678,619.029221 768.023293,658.926198 766.096923,658.783728 C746.80451,657.35691 732,649.0429 732,639 C732,628.585298 747.920969,620.029867 768.257551,619.086322 Z"
          id="Combined-Shape"
          stroke="#000000"
          stroke-width="12"
        />
      </g>
    </g>
  </g>
</svg>
